<svg width="18" height="18" viewBox="0 0 18 18" fill="none" xmlns="http://www.w3.org/2000/svg">
<g opacity="0.8">
<path d="M10.9799 2.60994C11.1149 2.60994 11.2499 2.60994 11.5199 2.60994V4.63494C11.3849 4.63494 11.1149 4.63494 10.8449 4.63494C10.5749 4.63494 10.3049 4.63494 10.1699 4.76994C10.0349 4.90494 10.0349 5.03994 10.0349 5.35494C10.0349 5.62494 10.0349 5.80494 10.0349 6.07494H11.5199V7.78494H10.0349V15.2099H7.73991V7.73994H6.5249V6.02994H7.73991V5.44494C7.73991 4.45494 7.8749 3.73494 8.1449 3.41994C8.5499 2.83494 9.3599 2.56494 10.5749 2.56494C10.7099 2.60994 10.8449 2.60994 10.9799 2.60994Z" fill="#FBFBFB"/>
</g>
</svg>
