<svg width="18" height="18" viewBox="0 0 18 18" fill="none" xmlns="http://www.w3.org/2000/svg">
<g opacity="0.8">
<path d="M16.1537 6.05003C16.1449 5.44571 16.0329 4.84617 15.8186 4.28097C15.4436 3.3158 14.6799 2.55262 13.7132 2.179C13.1542 1.96905 12.5633 1.85649 11.9651 1.84371C11.1959 1.80938 10.952 1.7998 8.99925 1.7998C7.04652 1.7998 6.79623 1.7998 6.03257 1.84371C5.43523 1.85649 4.8443 1.96905 4.28534 2.179C3.31857 2.55262 2.55411 3.3158 2.17988 4.28097C1.96957 4.83899 1.85602 5.42894 1.84483 6.02529C1.81044 6.79406 1.80005 7.03755 1.80005 8.98703C1.80005 10.9365 1.80005 11.1856 1.84483 11.9488C1.85682 12.5459 1.96957 13.1351 2.17988 13.6947C2.55491 14.6591 3.31857 15.4222 4.28614 15.7959C4.8427 16.013 5.43363 16.1359 6.03337 16.1551C6.80343 16.1894 7.04732 16.1998 9.00005 16.1998C10.9528 16.1998 11.2031 16.1998 11.9667 16.1551C12.5641 16.1431 13.155 16.0306 13.7148 15.8206C14.6815 15.4462 15.4452 14.683 15.8202 13.7186C16.0305 13.1598 16.1433 12.5707 16.1553 11.9727C16.1897 11.2048 16.2 10.9613 16.2 9.01098C16.1985 7.0615 16.1985 6.81402 16.1537 6.05003ZM8.99445 12.6736C6.95216 12.6736 5.29769 11.0219 5.29769 8.98304C5.29769 6.94415 6.95216 5.29243 8.99445 5.29243C11.0351 5.29243 12.6912 6.94415 12.6912 8.98304C12.6912 11.0219 11.0351 12.6736 8.99445 12.6736ZM12.8383 6.0165C12.361 6.0165 11.9763 5.63172 11.9763 5.15592C11.9763 4.68012 12.361 4.29534 12.8383 4.29534C13.3141 4.29534 13.6996 4.68012 13.6996 5.15592C13.6996 5.63172 13.3141 6.0165 12.8383 6.0165Z" fill="#FBFBFB"/>
<path d="M8.99566 11.2364C10.2395 11.2364 11.2479 10.2281 11.2479 8.98418C11.2479 7.7403 10.2395 6.73193 8.99566 6.73193C7.75177 6.73193 6.74341 7.7403 6.74341 8.98418C6.74341 10.2281 7.75177 11.2364 8.99566 11.2364Z" fill="#FBFBFB"/>
</g>
</svg>
