<svg aria-hidden="true" style="position:absolute;width:0;height:0;overflow:hidden" xmlns="http://www.w3.org/2000/svg">
  <defs>
    <symbol id="icon-facebook" viewBox="0 0 32 32">
      <path fill="#fbfbfb" style="fill:var(--color1, #fbfbfb)" opacity=".8" d="M19.52 4.64h.96v3.6h-1.2c-.48 0-.96 0-1.2.24s-.24.48-.24 1.04v1.28h2.64v3.04h-2.64v13.2h-4.08V13.76H11.6v-3.04h2.16V9.68c0-1.76.24-3.04.72-3.6.72-1.04 2.16-1.52 4.32-1.52.24.08.48.08.72.08z"/>
    </symbol>
    <symbol id="icon-instagram" viewBox="0 0 32 32">
      <path fill="#fbfbfb" style="fill:var(--color1, #fbfbfb)" opacity=".8" d="M28.718 10.756c-.016-1.074-.215-2.14-.596-3.145-.667-1.716-2.024-3.073-3.743-3.737-.994-.373-2.044-.573-3.108-.596-1.367-.061-1.801-.078-5.273-.078s-3.916 0-5.274.078c-1.062.023-2.112.223-3.106.596-1.719.664-3.078 2.021-3.743 3.737-.374.992-.576 2.041-.596 3.101-.061 1.367-.08 1.8-.08 5.265s0 3.909.08 5.265c.021 1.061.222 2.109.596 3.104.667 1.715 2.024 3.071 3.744 3.735.989.386 2.04.604 3.106.639 1.369.061 1.803.079 5.274.079s3.917 0 5.274-.079c1.062-.021 2.113-.221 3.108-.595 1.719-.666 3.076-2.022 3.743-3.737.374-.993.574-2.041.596-3.104.061-1.365.079-1.798.079-5.265-.003-3.466-.003-3.906-.082-5.264zM15.99 22.531c-3.631 0-6.572-2.936-6.572-6.561s2.941-6.561 6.572-6.561c3.628 0 6.572 2.936 6.572 6.561s-2.944 6.561-6.572 6.561zm6.834-11.835c-.849 0-1.532-.684-1.532-1.53s.684-1.53 1.532-1.53c.846 0 1.531.684 1.531 1.53s-.685 1.53-1.531 1.53z"/>
      <path fill="#fbfbfb" style="fill:var(--color1, #fbfbfb)" opacity=".8" d="M15.992 19.976c2.211 0 4.004-1.793 4.004-4.004s-1.793-4.004-4.004-4.004c-2.211 0-4.004 1.793-4.004 4.004s1.793 4.004 4.004 4.004z"/>
    </symbol>
    <symbol id="icon-youtube" viewBox="0 0 32 32">
      <path fill="#fbfbfb" style="fill:var(--color1, #fbfbfb)" opacity=".8" d="M24.24 6c-1.36-.08-4.16-.16-8.4-.16h-.56c-4.08 0-6.8.08-8.16.24-1.84.16-3.12.64-3.84 1.28-.64.56-1.12 1.6-1.28 2.96-.08.88-.16 2.72-.16 5.52v.4c0 2.64.08 4.48.24 5.36.24 1.28.64 2.24 1.44 2.8.8.64 2.16 1.04 4.08 1.2 1.36.08 4.16.16 8.4.16h.56c4.08 0 6.8-.08 8.16-.24 1.84-.16 3.12-.64 3.84-1.28.64-.56 1.12-1.6 1.28-2.96.08-.88.16-2.72.16-5.52v-.4c0-2.64-.08-4.48-.24-5.36-.24-1.28-.64-2.24-1.44-2.8-.8-.64-2.16-1.04-4.08-1.2zm-3.12 9.84-8.8 5.28V10.56l8.8 5.28z"/>
    </symbol>
  </defs>
</svg>
