<svg width="18" height="18" viewBox="0 0 18 18" fill="none" xmlns="http://www.w3.org/2000/svg">
<g opacity="0.8">
<path fill-rule="evenodd" clip-rule="evenodd" d="M13.6349 3.37516C12.8699 3.33016 11.2949 3.28516 8.90991 3.28516H8.59491C6.29991 3.28516 4.76993 3.33016 4.00493 3.42016C2.96993 3.51016 2.24991 3.78016 1.84491 4.14016C1.48491 4.45516 1.21492 5.04016 1.12492 5.80516C1.07992 6.30016 1.03491 7.33516 1.03491 8.91016V9.13516C1.03491 10.6202 1.07991 11.6552 1.16991 12.1502C1.30491 12.8702 1.52993 13.4102 1.97993 13.7252C2.42993 14.0852 3.19492 14.3102 4.27492 14.4002C5.03992 14.4452 6.61492 14.4902 8.99992 14.4902H9.31492C11.6099 14.4902 13.1399 14.4452 13.9049 14.3552C14.9399 14.2652 15.6599 13.9952 16.0649 13.6352C16.4249 13.3202 16.6949 12.7352 16.7849 11.9702C16.8299 11.4752 16.8749 10.4402 16.8749 8.86516V8.64016C16.8749 7.15516 16.8299 6.12016 16.7399 5.62516C16.6049 4.90516 16.3799 4.36516 15.9299 4.05016C15.4799 3.69016 14.7149 3.46516 13.6349 3.37516ZM11.8799 8.91016L6.92993 11.8802V5.94016L11.8799 8.91016Z" fill="#FBFBFB"/>
</g>
</svg>
